<mxfile host="app.diagrams.net" modified="2024-07-14T14:05:31.559Z" agent="Mozilla/5.0 (Macintosh; Intel Mac OS X 10_15_7) AppleWebKit/537.36 (KHTML, like Gecko) Chrome/126.0.0.0 Safari/537.36" version="24.6.5" etag="Wrr8yL_bJ_ubKX5TVgSK" type="github">
  <diagram name="Страница — 1" id="MpuStf48hC5ZGL1qKnXC">
    <mxGraphModel>
      <root>
        <mxCell id="0" />
        <mxCell id="1" parent="0" />
      </root>
    </mxGraphModel>
  </diagram>
</mxfile>
